<?xml version="1.0" standalone="no"?><!DOCTYPE svg PUBLIC "-//W3C//DTD SVG 1.1//EN" "http://www.w3.org/Graphics/SVG/1.1/DTD/svg11.dtd"><svg t="1737400638880" class="icon" viewBox="0 0 3362 1024" version="1.1" xmlns="http://www.w3.org/2000/svg" p-id="8205" xmlns:xlink="http://www.w3.org/1999/xlink" width="65.6640625" height="20"><path d="M826.161766 266.24h-199.68C607.708433 110.250667 531.249766 0 433.628433 0 336.348433 0 259.548433 110.250667 240.7751 266.24H46.556433C19.5911 266.24-1.9129 289.109333 0.1351 316.416l43.690666 573.781333c3.754667 49.493333 45.056 87.722667 94.890667 87.722667H734.001766c49.834667 0 91.136-38.229333 94.890667-87.722667l43.690667-573.781333c2.048-27.306667-19.114667-50.176-46.421334-50.176zM433.628433 43.349333c72.704 0 132.096 93.184 149.162667 222.890667H284.8071c16.725333-129.706667 76.117333-222.890667 148.821333-222.890667z m13.653333 812.373334c-53.930667 0-106.154667-19.114667-154.965333-57.344-5.802667-4.437333-6.826667-13.312-2.389333-19.114667 4.437333-5.802667 12.970667-6.826667 19.114666-2.389333 44.373333 34.474667 89.770667 51.541333 138.24 51.541333 45.056 0 116.736-24.234667 116.736-89.770667 0-72.362667-75.093333-98.645333-140.970666-122.197333-21.845333-7.850667-42.666667-15.018667-58.368-23.552-34.474667-18.773333-54.954667-60.416-50.858667-103.424 4.096-43.008 32.426667-76.458667 75.093333-90.112 92.501333-29.013333 166.912 26.965333 169.984 29.354667 5.802667 4.437333 7.168 12.970667 2.389334 19.114666-4.437333 5.802667-12.970667 7.168-19.114667 2.389334-0.682667-0.682667-66.56-49.493333-145.408-24.917334-32.426667 10.24-52.906667 34.474667-55.978667 66.56-3.072 31.744 11.946667 63.146667 36.864 76.8 13.653333 7.509333 33.450667 14.336 54.272 21.845334 67.242667 23.552 159.061333 55.978667 159.061334 147.797333 0.341333 85.674667-88.064 117.418667-143.701334 117.418667zM1320.753766 599.722667c-6.826667-2.730667-15.018667-5.12-24.576-8.192-55.296-16.725333-105.130667-37.205333-105.130666-99.669334 0-25.6 19.797333-48.469333 50.517333-58.026666 74.410667-23.210667 136.874667 22.869333 137.898667 23.552 9.557333 7.168 23.210667 5.461333 30.378666-4.096 7.168-9.557333 5.461333-23.210667-4.096-30.378667-3.413333-2.389333-80.554667-60.757333-177.152-30.72-49.152 15.36-80.896 54.613333-80.896 99.669333 0 100.352 88.405333 126.976 135.850667 141.312 8.533333 2.730667 15.701333 4.778667 20.821333 6.826667 65.536 26.624 93.525333 55.978667 93.525334 98.645333 0 66.56-80.554667 81.578667-108.544 81.578667-46.762667 0-90.453333-16.384-133.461334-49.834667-9.557333-7.509333-23.210667-5.802667-30.378666 3.754667-7.509333 9.557333-5.802667 23.210667 3.754666 30.378667 50.176 39.253333 104.106667 59.050667 160.085334 59.050666 58.709333 0 152.234667-33.792 152.234666-124.928 0-38.570667-12.629333-95.232-120.832-138.922666zM1623.516433 575.829333c-34.474667 0-65.877333 13.312-89.770667 34.816v-203.093333c0-11.946667-9.898667-21.845333-21.845333-21.845333s-21.845333 9.898667-21.845333 21.845333v434.517333c0 11.946667 9.898667 21.845333 21.845333 21.845334s21.845333-9.898667 21.845333-21.845334v-133.12c0-49.493333 40.277333-89.770667 89.770667-89.770666s89.770667 40.277333 89.770667 89.770666v135.850667c0 11.946667 9.898667 21.845333 21.845333 21.845333 11.946667 0 21.845333-9.898667 21.845333-21.845333v-135.850667c-0.341333-73.386667-60.074667-133.12-133.461333-133.12zM1965.873766 570.368c-82.261333 0-149.504 66.901333-149.504 149.504 0 82.261333 66.901333 149.504 149.504 149.504 82.261333 0 149.504-66.901333 149.504-149.504 0-82.261333-67.242667-149.504-149.504-149.504z m0 255.317333c-58.368 0-105.813333-47.445333-105.813333-105.813333s47.445333-105.813333 105.813333-105.813333 105.813333 47.445333 105.813334 105.813333-47.445333 105.813333-105.813334 105.813333zM2324.273766 570.368c-44.373333 0-83.968 19.456-111.274666 49.834667v-24.234667c0-11.946667-9.898667-21.845333-21.845334-21.845333s-21.845333 9.898667-21.845333 21.845333v404.821333c0 11.946667 9.898667 21.845333 21.845333 21.845334s21.845333-9.898667 21.845334-21.845334V819.2c27.306667 30.72 67.242667 49.834667 111.274666 49.834667 82.261333 0 149.504-66.901333 149.504-149.504 0-81.92-66.901333-149.162667-149.504-149.162667z m0 255.317333c-58.368 0-105.813333-47.445333-105.813333-105.813333s47.445333-105.813333 105.813333-105.813333 105.813333 47.445333 105.813334 105.813333c0.341333 58.368-47.445333 105.813333-105.813334 105.813333zM2666.289766 570.368c-38.570667 0-74.752 15.701333-102.058666 43.690667-28.330667 29.354667-43.690667 69.632-42.325334 110.933333 1.365333 40.96 19.114667 78.506667 49.493334 105.813333 27.306667 24.576 63.146667 37.888 99.669333 37.888 3.754667 0 7.850667 0 11.946667-0.341333 33.792-2.730667 65.536-13.653333 87.381333-29.696 9.557333-7.168 11.946667-20.821333 4.778667-30.378667-7.168-9.557333-20.821333-11.946667-30.378667-4.778666-15.36 11.264-39.936 19.456-65.536 21.504-28.672 2.389333-57.344-7.509333-78.848-26.624-18.090667-16.384-30.037333-37.888-33.792-61.781334h190.464c15.36 0 30.037333-7.509333 38.912-20.138666 9.216-12.970667 11.946667-29.354667 7.168-44.373334-19.797333-60.757333-74.752-101.717333-136.874667-101.717333z m94.549334 121.173333c-0.682667 0.682667-2.048 2.048-3.754667 2.048h-188.757333c4.437333-18.432 13.653333-35.498667 26.965333-49.152 19.114667-19.797333 44.032-30.378667 70.997333-30.378666 43.349333 0 81.578667 29.013333 95.573334 72.021333 0.682667 2.389333-0.341333 4.437333-1.024 5.461333zM3134.5991 672.426667c-19.797333-61.098667-74.752-102.058667-136.874667-102.058667-38.570667 0-74.752 15.701333-102.058667 43.690667-28.330667 29.354667-43.690667 69.632-42.325333 110.933333 1.365333 40.96 19.114667 78.506667 49.493333 105.813333 27.306667 24.576 63.146667 37.888 99.669334 37.888 3.754667 0 7.850667 0 11.946666-0.341333 33.792-2.730667 65.536-13.653333 87.381334-29.696 9.557333-7.168 11.946667-20.821333 4.778666-30.378667-7.168-9.557333-20.821333-11.946667-30.378666-4.778666-15.36 11.264-39.936 19.456-65.536 21.504-28.672 2.389333-57.344-7.509333-78.848-26.624-18.090667-16.384-30.037333-37.888-33.792-61.781334h190.464c15.36 0 30.037333-7.509333 38.912-20.138666 9.216-12.288 11.946667-29.013333 7.168-44.032z m-42.325334 19.114666c-0.682667 0.682667-2.048 2.048-3.754666 2.048h-188.757334c4.437333-18.432 13.653333-35.498667 26.965334-49.152 19.114667-19.797333 44.032-30.378667 70.997333-30.378666 43.349333 0 81.578667 29.013333 95.573333 72.021333 0.682667 2.389333-0.341333 4.437333-1.024 5.461333z" fill="#FF4909" p-id="8206"></path></svg>